<svg width="999" height="400" viewBox="0 0 999 400" fill="none" xmlns="http://www.w3.org/2000/svg">
<path d="M117.315 253.333C146.766 253.333 170.64 229.455 170.64 200C170.64 170.545 146.766 146.667 117.315 146.667C87.8645 146.667 63.9901 170.545 63.9901 200C63.9901 229.455 87.8645 253.333 117.315 253.333Z" fill="#5AB1BB"/>
<path d="M284.579 245.392C282.524 248.946 277.393 248.941 275.342 245.384L226.894 161.344C224.844 157.787 227.412 153.345 231.517 153.348L328.496 153.428C332.601 153.431 335.165 157.877 333.11 161.431L284.579 245.392Z" fill="#5AB1BB"/>
<path fill-rule="evenodd" clip-rule="evenodd" d="M399.938 80C399.938 35.8172 364.126 0 319.95 0H79.9876C35.8117 0 0 35.8172 0 80V320C0 364.183 35.8117 400 79.9876 400H319.95C364.126 400 399.938 364.183 399.938 320V80ZM26.6625 186.667C26.6625 142.484 62.4742 106.667 106.65 106.667H293.288C337.464 106.667 373.275 142.484 373.275 186.667V213.333C373.275 257.516 337.464 293.333 293.288 293.333H106.65C62.4742 293.333 26.6625 257.516 26.6625 213.333V186.667Z" fill="#5AB1BB"/>
<path d="M436.732 280C434.955 280 434.066 279.111 434.066 277.333V140.48C434.066 138.702 434.955 137.813 436.732 137.813H466.914C468.692 137.813 469.58 138.702 469.58 140.48V251.52H496.456C498.234 251.52 499.123 252.409 499.123 254.187V277.333C499.123 279.111 498.234 280 496.456 280H436.732Z" fill="#5AB1BB"/>
<path d="M518.803 280C517.025 280 516.137 279.111 516.137 277.333V165.333C516.137 163.556 517.025 162.667 518.803 162.667H547.172C548.949 162.667 549.838 163.556 549.838 165.333V277.333C549.838 279.111 548.949 280 547.172 280H518.803ZM518.27 153.813C516.848 153.813 516.137 153.102 516.137 151.68V138.133C516.137 136.711 516.848 136 518.27 136H547.918C549.198 136 549.838 136.711 549.838 138.133V151.68C549.838 153.102 549.198 153.813 547.918 153.813H518.27Z" fill="#5AB1BB"/>
<path d="M604.744 315.52C602.967 315.52 602.078 314.631 602.078 312.853V296.213C602.078 294.791 602.611 294.009 603.678 293.867L619.249 289.92L630.341 284.053C631.407 283.484 631.94 282.382 631.94 280.747V263.253L621.915 272.533C620.706 273.742 619.284 274.347 617.649 274.347L599.519 274.987C597.883 274.987 596.461 274.418 595.253 273.28L575.736 253.653C574.527 252.516 573.923 251.093 573.923 249.387V190.08C573.923 188.373 574.527 186.951 575.736 185.813L597.066 164.48C598.274 163.271 599.696 162.667 601.332 162.667H658.389C660.167 162.667 661.056 163.556 661.056 165.333V293.547C661.056 295.467 660.451 296.889 659.243 297.813L645.058 306.88L627.141 314.347C626.074 314.773 625.257 315.058 624.688 315.2C624.19 315.413 623.337 315.52 622.128 315.52H604.744ZM613.81 251.947H621.275C623.55 251.947 625.115 251.484 625.968 250.56C626.821 249.636 627.248 248 627.248 245.653V187.52H613.81C611.463 187.52 609.864 187.982 609.01 188.907C608.157 189.831 607.731 191.467 607.731 193.813V245.653C607.731 248 608.157 249.636 609.01 250.56C609.864 251.484 611.463 251.947 613.81 251.947Z" fill="#5AB1BB"/>
<path d="M712.564 280C710.929 280 709.507 279.396 708.298 278.187L686.968 256.853C685.76 255.716 685.155 254.293 685.155 252.587V190.08C685.155 188.373 685.76 186.951 686.968 185.813L708.298 164.48C709.507 163.271 710.929 162.667 712.564 162.667H769.622C771.4 162.667 772.289 163.556 772.289 165.333V277.333C772.289 279.111 771.4 280 769.622 280H747.439C746.515 280 745.804 279.822 745.306 279.467C744.879 279.111 744.382 278.684 743.813 278.187L738.48 272.853L733.148 278.187C732.01 279.396 730.588 280 728.882 280H712.564ZM725.042 255.147H732.508C734.783 255.147 736.347 254.684 737.201 253.76C738.054 252.836 738.48 251.2 738.48 248.853V187.52H725.042C722.696 187.52 721.096 187.982 720.243 188.907C719.39 189.831 718.963 191.467 718.963 193.813V248.853C718.963 251.2 719.39 252.836 720.243 253.76C721.096 254.684 722.696 255.147 725.042 255.147Z" fill="#5AB1BB"/>
<path d="M824.544 280C822.837 280 821.415 279.396 820.278 278.187L798.948 256.853C797.739 255.716 797.135 254.293 797.135 252.587V165.333C797.135 163.556 798.023 162.667 799.801 162.667H828.276C830.054 162.667 830.943 163.556 830.943 165.333V248.32C830.943 251.662 832.578 253.333 835.849 253.333H850.46V165.333C850.46 163.556 851.348 162.667 853.126 162.667H881.602C883.379 162.667 884.268 163.556 884.268 165.333V277.333C884.268 279.111 883.379 280 881.602 280H824.544Z" fill="#5AB1BB"/>
<path d="M968.391 280C967.467 280 966.721 279.858 966.152 279.573C965.654 279.289 965.334 278.898 965.192 278.4L952.927 230.08H943.009V204.48H952.927L965.192 164.48C965.334 163.911 965.654 163.52 966.152 163.307C966.721 163.022 967.467 162.88 968.391 162.88H995.374C997.151 162.88 998.04 163.769 998.04 165.547V176.853C998.04 177.849 997.969 178.631 997.827 179.2C997.685 179.769 997.471 180.373 997.187 181.013L981.403 217.387V221.013L998.04 261.867C998.396 262.649 998.644 263.36 998.787 264C998.929 264.569 999 265.209 999 265.92V277.333C999 279.111 998.111 280 996.334 280H968.391ZM911.867 280C910.089 280 909.201 279.111 909.201 277.333V140.48C909.201 138.702 910.089 137.813 911.867 137.813H940.342C942.12 137.813 943.009 138.702 943.009 140.48V277.333C943.009 279.111 942.12 280 940.342 280H911.867Z" fill="#5AB1BB"/>
</svg>
